# xmcd CD database file
#
# Track frame offsets:
#	150
#	16227
#	33105
#	50967
#	68800
#	87875
#	107080
#	122830
#	138202
#	159877
#	174132
#	189355
#	208130
#	225140
#	244052
#
# Disc length: 3453 seconds
#
# Revision: 1
# Processed by: cddbd v1.5.2PL0 Copyright (c) Steve Scherf et al.
# Submitted via: jetAudio 7
#
DISCID=b60d7b0f
DTITLE=ANIME HOT WAVE - ANIME HOT WAVE
DYEAR=1990
DGENRE=Anime
TTITLE0=そのままの君でいて（仁藤優子
TTITLE1=ロ・ロ・ロ・ロシアン・ルーレット（中原めい
TTITLE1=子
TTITLE2=ドント・ルック・バック（アースシェイカー
TTITLE3=ピュアストーン（結城梨沙
TTITLE4=メロスのように（エア・メイル・フロム・ナガ
TTITLE4=サキ
TTITLE5=不思議コール・ミー（ＭＩＯ
TTITLE6=宇宙の王者！ゴッドマーズ（樋浦一帆
TTITLE7=デリケートに好きして（太田貴子
TTITLE8=見知らぬ国のトリッパー（岡本舞子
TTITLE9=不思議色ハピネス（小幡洋子
TTITLE10=金のリボンでＲｏｃｋして（志賀真理子
TTITLE11=ドリーミー・ドリーマー（石川優子
TTITLE12=Ｄａｎｇ Ｄａｎｇ気になる（中村由真
TTITLE13=ナイト・オブ・サマー・サイド（池田政典
TTITLE14=キャッツ・アイ（杏里
EXTD=YEAR: 1990
EXTT0=
EXTT1=
EXTT2=
EXTT3=
EXTT4=
EXTT5=
EXTT6=
EXTT7=
EXTT8=
EXTT9=
EXTT10=
EXTT11=
EXTT12=
EXTT13=
EXTT14=
PLAYORDER=
